<svg width="101" height="97" viewBox="0 0 101 97" fill="none" xmlns="http://www.w3.org/2000/svg">
<path d="M44.7196 29.1868C46.5157 23.659 54.3362 23.659 56.1323 29.1868L57.0167 31.9088C57.82 34.3809 60.1237 36.0547 62.723 36.0547H65.5851C71.3974 36.0547 73.8141 43.4923 69.1118 46.9088L66.7964 48.591C64.6934 50.1189 63.8135 52.8271 64.6167 55.2992L65.5011 58.0212C67.2973 63.549 60.9704 68.1458 56.2681 64.7294L53.9527 63.0471C51.8497 61.5192 49.0022 61.5192 46.8992 63.0471L44.5838 64.7294C39.8815 68.1458 33.5547 63.549 35.3508 58.0212L36.2352 55.2992C37.0384 52.8271 36.1585 50.1189 34.0556 48.591L31.7401 46.9088C27.0378 43.4923 29.4545 36.0547 35.2668 36.0547H38.1289C40.7282 36.0547 43.032 34.3809 43.8352 31.9088L44.7196 29.1868Z" fill="#F8C08E"/>
<path d="M59.2474 30.9952C63.7694 28.6678 68.6278 33.4866 66.3375 38.0274L65.0486 40.5828C63.7317 43.1938 64.2458 46.3558 66.322 48.4151L68.3541 50.4305C71.965 54.012 68.8833 60.1217 63.8569 59.3467L61.0283 58.9106C58.1382 58.4649 55.2898 59.931 53.9729 62.542L52.6841 65.0973C50.3937 69.6382 43.6308 68.5955 42.8146 63.5756L42.3553 60.7506C41.886 57.8643 39.6115 55.6083 36.7214 55.1627L33.8928 54.7266C28.8664 53.9516 27.7683 47.1974 32.2903 44.8699L34.835 43.5601C37.4351 42.2219 38.8777 39.3616 38.4085 36.4752L37.9492 33.6503C37.133 28.6304 43.2173 25.4989 46.8282 29.0803L48.8602 31.0957C50.9365 33.155 54.1026 33.6432 56.7027 32.305L59.2474 30.9952Z" stroke="#FB8115" stroke-width="1.5"/>
<path d="M68.5314 44.6297C73.0838 46.897 72.0753 53.6652 67.0596 54.5068L64.2371 54.9804C61.3531 55.4643 59.1087 57.7502 58.6777 60.6425L58.2559 63.4733C57.5064 68.5036 50.7578 69.6359 48.4075 65.1258L47.0849 62.5877C45.7335 59.9944 42.8659 58.5662 39.9819 59.0501L37.1594 59.5237C32.1437 60.3653 28.9814 54.297 32.5445 50.668L34.5496 48.6258C36.5983 46.5391 37.0705 43.3706 35.7191 40.7773L34.3964 38.2392C32.0461 33.7291 36.8402 28.8463 41.3927 31.1136L43.9546 32.3895C46.5722 33.6932 49.7315 33.1631 51.7803 31.0765L53.7854 29.0342C57.3485 25.4053 63.4738 28.4559 62.7242 33.4861L62.3024 36.3169C61.8714 39.2093 63.3519 42.0502 65.9695 43.3538L68.5314 44.6297Z" stroke="#FB8115" stroke-width="1.5"/>
<path d="M64.6999 58.3639C66.2341 63.2128 60.6671 67.192 56.5758 64.1709L54.2735 62.4708C51.9211 60.7337 48.7177 60.7089 46.3386 62.4094L44.0103 64.0737C39.8728 67.0311 34.368 62.9662 35.977 58.1417L36.8825 55.4267C37.8076 52.6526 36.8413 49.5983 34.4888 47.8612L32.1865 46.1611C28.0953 43.1399 30.2601 36.6485 35.3458 36.6879L38.2077 36.71C41.1319 36.7327 43.7381 34.8698 44.6632 32.0957L45.5687 29.3807C47.1777 24.5561 54.0204 24.6091 55.5545 29.458L56.4178 32.1867C57.2999 34.9747 59.877 36.8777 62.8012 36.9003L65.6631 36.9225C70.7487 36.9618 72.8129 43.486 68.6754 46.4434L66.347 48.1077C63.968 49.8082 62.9545 52.8472 63.8366 55.6352L64.6999 58.3639Z" stroke="#FB8115" stroke-width="1.5"/>
</svg>
