<svg width="195" height="195" viewBox="0 0 195 195" fill="none" xmlns="http://www.w3.org/2000/svg">
<path d="M87.6635 58.1573C90.657 48.9441 103.691 48.9441 106.685 58.1572L110.334 69.3877C111.672 73.5079 115.512 76.2975 119.844 76.2975H131.653C141.34 76.2975 145.368 88.6937 137.53 94.3877L127.977 101.328C124.472 103.875 123.006 108.389 124.345 112.509L127.994 123.739C130.987 132.952 120.442 140.614 112.605 134.92L103.052 127.979C99.5471 125.432 94.8011 125.432 91.2962 127.979L81.743 134.92C73.9059 140.614 63.3611 132.952 66.3546 123.739L70.0036 112.509C71.3424 108.389 69.8758 103.875 66.3709 101.328L56.8177 94.3877C48.9806 88.6937 53.0083 76.2975 62.6956 76.2975H74.5039C78.8362 76.2975 82.6758 73.5079 84.0145 69.3877L87.6635 58.1573Z" fill="#F8C08E"/>
<path d="M118.814 64.2031C126.135 60.4348 134.001 68.2367 130.293 75.5886L124.975 86.1318C122.732 90.5801 123.607 95.9673 127.145 99.4757L135.529 107.791C141.375 113.59 136.386 123.482 128.248 122.227L116.577 120.427C111.653 119.668 106.8 122.166 104.557 126.614L99.2391 137.157C95.531 144.509 84.5814 142.821 83.26 134.694L81.365 123.038C80.5655 118.121 76.6904 114.277 71.7665 113.518L60.096 111.719C51.958 110.464 50.1801 99.5285 57.5014 95.7603L68.0007 90.3563C72.4305 88.0763 74.8884 83.2033 74.0888 78.2857L72.1938 66.6304C70.8724 58.503 80.7232 53.4328 86.5694 59.2314L94.9533 67.5469C98.4906 71.0553 103.885 71.887 108.315 69.607L118.814 64.2031Z" stroke="#FB8115" stroke-width="3"/>
<path d="M136.821 95.2344C144.191 98.9053 142.559 109.863 134.438 111.226L122.792 113.18C117.879 114.004 114.055 117.899 113.321 122.826L111.581 134.506C110.367 142.65 99.4408 144.483 95.6355 137.181L90.1784 126.71C87.876 122.291 82.9906 119.858 78.0771 120.683L66.4316 122.637C58.3109 123.999 53.1909 114.174 58.9598 108.299L67.2327 99.8727C70.7232 96.3178 71.5275 90.9195 69.2252 86.5013L63.7681 76.0295C59.9628 68.7274 67.7247 60.8219 75.0954 64.4928L85.6654 69.7571C90.125 71.9781 95.5076 71.075 98.9981 67.52L107.271 59.0941C113.04 53.2185 122.957 58.1576 121.743 66.3019L120.003 77.9813C119.269 82.909 121.791 87.7491 126.251 89.9701L136.821 95.2344Z" stroke="#FB8115" stroke-width="3"/>
<path d="M126.36 124.429C128.844 132.28 119.83 138.723 113.206 133.831L103.707 126.817C99.6994 123.857 94.2417 123.815 90.1886 126.712L80.582 133.579C73.8832 138.367 64.9707 131.786 67.5757 123.975L71.3115 112.773C72.8877 108.046 71.2413 102.843 67.2335 99.8833L57.7343 92.8688C51.1104 87.9775 54.6154 77.4676 62.8493 77.5313L74.6574 77.6226C79.6393 77.6612 84.0795 74.4874 85.6557 69.7612L89.3915 58.5594C91.9965 50.7481 103.075 50.8339 105.559 58.6845L109.121 69.9428C110.624 74.6928 115.014 77.935 119.996 77.9735L131.804 78.0649C140.038 78.1286 143.38 88.6915 136.681 93.4797L127.075 100.346C123.022 103.244 121.295 108.421 122.798 113.171L126.36 124.429Z" stroke="#FB8115" stroke-width="3"/>
</svg>
