<svg width="25" height="13" viewBox="0 0 25 13" fill="none" xmlns="http://www.w3.org/2000/svg">
<path fill-rule="evenodd" clip-rule="evenodd" d="M0.52311 0.320113C0.608846 0.24031 0.710696 0.176996 0.822828 0.133796C0.93496 0.0905955 1.05517 0.0683594 1.17657 0.0683594C1.29797 0.0683594 1.41818 0.0905955 1.53032 0.133796C1.64245 0.176996 1.7443 0.24031 1.83003 0.320113L12.2522 9.99821L22.6744 0.320113C22.7602 0.240439 22.862 0.177239 22.9742 0.13412C23.0863 0.0910011 23.2065 0.068808 23.3278 0.068808C23.4492 0.068808 23.5693 0.0910011 23.6815 0.13412C23.7936 0.177239 23.8955 0.240439 23.9813 0.320113C24.0671 0.399786 24.1352 0.494372 24.1816 0.59847C24.2281 0.702568 24.252 0.81414 24.252 0.926815C24.252 1.03949 24.2281 1.15106 24.1816 1.25516C24.1352 1.35926 24.0671 1.45384 23.9813 1.53352L12.9057 11.8166C12.8199 11.8964 12.7181 11.9597 12.6059 12.0029C12.4938 12.0461 12.3736 12.0684 12.2522 12.0684C12.1308 12.0684 12.0106 12.0461 11.8985 12.0029C11.7863 11.9597 11.6845 11.8964 11.5987 11.8166L0.52311 1.53352C0.437157 1.45392 0.368963 1.35935 0.322433 1.25525C0.275904 1.15114 0.251953 1.03953 0.251953 0.926815C0.251953 0.8141 0.275904 0.702492 0.322433 0.598384C0.368963 0.494276 0.437157 0.399713 0.52311 0.320113Z" fill="black"/>
</svg>
