<svg width="17" height="17" viewBox="0 0 17 17" fill="none" xmlns="http://www.w3.org/2000/svg">
<g id="BsGeoAltFill">
<path id="Vector" d="M8.74902 16.8472C8.74902 16.8472 14.749 11.1612 14.749 6.84717C14.749 5.25587 14.1169 3.72975 12.9917 2.60453C11.8664 1.47931 10.3403 0.847168 8.74902 0.847168C7.15772 0.847168 5.6316 1.47931 4.50638 2.60453C3.38116 3.72975 2.74902 5.25587 2.74902 6.84717C2.74902 11.1612 8.74902 16.8472 8.74902 16.8472ZM8.74902 9.84717C7.95337 9.84717 7.19031 9.5311 6.6277 8.96849C6.06509 8.40588 5.74902 7.64282 5.74902 6.84717C5.74902 6.05152 6.06509 5.28846 6.6277 4.72585C7.19031 4.16324 7.95337 3.84717 8.74902 3.84717C9.54467 3.84717 10.3077 4.16324 10.8703 4.72585C11.433 5.28846 11.749 6.05152 11.749 6.84717C11.749 7.64282 11.433 8.40588 10.8703 8.96849C10.3077 9.5311 9.54467 9.84717 8.74902 9.84717Z" fill="black"/>
</g>
</svg>
