<svg width="12" height="13" viewBox="0 0 12 13" fill="none" xmlns="http://www.w3.org/2000/svg">
<g id="BsCheckCircle">
<path id="Vector" d="M6 12.0098C4.60761 12.0098 3.27226 11.4566 2.28769 10.4721C1.30312 9.48751 0.75 8.15215 0.75 6.75977C0.75 5.36738 1.30312 4.03202 2.28769 3.04745C3.27226 2.06289 4.60761 1.50977 6 1.50977C7.39239 1.50977 8.72774 2.06289 9.71231 3.04745C10.6969 4.03202 11.25 5.36738 11.25 6.75977C11.25 8.15215 10.6969 9.48751 9.71231 10.4721C8.72774 11.4566 7.39239 12.0098 6 12.0098ZM6 12.7598C7.5913 12.7598 9.11742 12.1276 10.2426 11.0024C11.3679 9.87719 12 8.35106 12 6.75977C12 5.16847 11.3679 3.64234 10.2426 2.51713C9.11742 1.39191 7.5913 0.759766 6 0.759766C4.4087 0.759766 2.88258 1.39191 1.75736 2.51713C0.632141 3.64234 0 5.16847 0 6.75977C0 8.35106 0.632141 9.87719 1.75736 11.0024C2.88258 12.1276 4.4087 12.7598 6 12.7598Z" fill="#0FA958"/>
<path id="Vector_2" d="M8.22727 4.48723C8.22192 4.49241 8.21691 4.49792 8.21227 4.50373L5.60752 7.82248L4.03777 6.25198C3.93113 6.15262 3.7901 6.09853 3.64437 6.1011C3.49865 6.10367 3.35961 6.16271 3.25655 6.26577C3.15349 6.36883 3.09446 6.50786 3.09188 6.65359C3.08931 6.79932 3.14341 6.94035 3.24277 7.04698L5.22727 9.03223C5.28073 9.0856 5.34439 9.12765 5.41445 9.15587C5.48452 9.1841 5.55955 9.19793 5.63508 9.19653C5.7106 9.19513 5.78507 9.17853 5.85404 9.14773C5.92301 9.11692 5.98507 9.07254 6.03652 9.01723L9.03052 5.27473C9.13246 5.16773 9.1882 5.0249 9.18568 4.87713C9.18317 4.72936 9.12259 4.58852 9.01706 4.48505C8.91152 4.38159 8.76951 4.32381 8.62171 4.32422C8.47392 4.32463 8.33223 4.38319 8.22727 4.48723Z" fill="#0FA958"/>
</g>
</svg>
